<svg width="36" height="36" viewBox="0 0 36 36" fill="none" xmlns="http://www.w3.org/2000/svg">
<rect width="36" height="36" rx="4" fill="#005DF0"/>
<path d="M17.9902 7C23.2988 7 27.7307 10.6778 28.7656 15.5596C28.9209 16.2833 28.9996 17.0216 29 17.7617C28.9999 23.7062 24.2674 28.5985 18.1807 28.5986C17.2125 28.5986 15.9068 28.3556 15.1943 28.1562C14.4822 27.9569 13.7707 27.693 13.5869 27.6221C13.399 27.5499 13.1993 27.5129 12.998 27.5127C12.7787 27.5119 12.5614 27.5551 12.3594 27.6406L8.77148 28.9355C8.69319 28.9694 8.61021 28.9911 8.52539 29C8.45831 28.9998 8.39192 28.9859 8.33008 28.96C8.26815 28.9339 8.21118 28.8956 8.16406 28.8477C8.11714 28.7998 8.07965 28.7428 8.05469 28.6807C8.02979 28.6185 8.01765 28.5514 8.01855 28.4844C8.02299 28.4256 8.03414 28.3671 8.05078 28.3105L9.08789 24.5576C9.15134 24.326 9.01262 24.0036 8.87988 23.7715C8.8388 23.7023 8.79337 23.6357 8.74512 23.5713C7.60672 21.8449 7 19.8219 7 17.7539C6.98096 11.8177 11.9034 7.00014 17.9902 7ZM17.9902 8.5C12.6981 8.50014 8.48374 12.6782 8.5 17.749V17.7539C8.49999 19.5158 9.01307 21.2394 9.97656 22.7139C10.0453 22.8083 10.1103 22.9054 10.1699 23.0059L10.1816 23.0273C10.2782 23.1962 10.401 23.4378 10.4883 23.7158C10.5653 23.9614 10.6778 24.4299 10.5342 24.9541V24.957L9.99707 26.8984L11.8184 26.2412C12.1946 26.0886 12.5976 26.0113 13.0039 26.0127C13.3871 26.0136 13.7673 26.0843 14.125 26.2217L14.127 26.2227C14.2892 26.2853 14.9514 26.5308 15.5986 26.7119C16.2257 26.8874 17.39 27.0986 18.1807 27.0986C23.4226 27.0985 27.4993 22.8945 27.5 17.7627C27.4996 17.128 27.432 16.4946 27.2988 15.874L27.2979 15.8701C26.4115 11.6901 22.5987 8.5 17.9902 8.5ZM12.9229 16.3076C13.8574 16.3077 14.6152 17.0654 14.6152 18C14.6152 18.9346 13.8574 19.6923 12.9229 19.6924C11.9884 19.6922 11.2305 18.9345 11.2305 18C11.2305 17.0655 11.9884 16.3078 12.9229 16.3076ZM18 16.3076C18.9345 16.3078 19.6923 17.0655 19.6924 18C19.6923 18.9345 18.9345 19.6922 18 19.6924C17.0656 19.6922 16.3077 18.9345 16.3076 18C16.3077 17.0655 17.0655 16.3078 18 16.3076ZM23.0762 16.3076C24.0108 16.3076 24.7685 17.0654 24.7686 18C24.7685 18.9346 24.0108 19.6924 23.0762 19.6924C22.1419 19.692 21.3848 18.9343 21.3848 18C21.3848 17.0657 22.1419 16.308 23.0762 16.3076Z" fill="white"/>
</svg>
