<svg width="36" height="36" viewBox="0 0 36 36" fill="none" xmlns="http://www.w3.org/2000/svg">
<path fill-rule="evenodd" clip-rule="evenodd" d="M11.0334 10.4667C10.7417 10.4667 10.4619 10.5825 10.2556 10.7888C10.0493 10.9951 9.93343 11.2749 9.93343 11.5666V14.8666C9.93343 15.2716 9.60511 15.6 9.2001 15.6C8.7951 15.6 8.46678 15.2716 8.46678 14.8666V11.5666C8.46678 10.8859 8.73719 10.2331 9.21853 9.75175C9.69987 9.27041 10.3527 9 11.0334 9H14.5117C15.0184 9.00001 15.5139 9.15004 15.9355 9.43116C15.9355 9.43117 15.9355 9.43115 15.9355 9.43116L17.2115 10.2818C17.3922 10.4023 17.6046 10.4666 17.8217 10.4667C17.8218 10.4667 17.8217 10.4667 17.8217 10.4667H24.9667C25.6474 10.4667 26.3002 10.7371 26.7815 11.2184C27.2629 11.6997 27.5333 12.3526 27.5333 13.0333V14.8666C27.5333 15.2716 27.205 15.6 26.8 15.6C26.395 15.6 26.0666 15.2716 26.0666 14.8666V13.0333C26.0666 12.7416 25.9508 12.4618 25.7445 12.2555C25.5382 12.0492 25.2584 11.9333 24.9667 11.9333H17.8217C17.315 11.9333 16.8196 11.7833 16.3979 11.5022C16.3979 11.5021 16.398 11.5022 16.3979 11.5022L15.1219 10.6515C14.9412 10.531 14.7289 10.4667 14.5117 10.4667C14.5117 10.4667 14.5117 10.4667 14.5117 10.4667H11.0334Z" fill="#005DF0"/>
<path fill-rule="evenodd" clip-rule="evenodd" d="M9.2001 15.6C9.09887 15.5999 8.99866 15.6209 8.90592 15.6615C8.81319 15.7021 8.72986 15.7614 8.66119 15.8358C8.59252 15.9102 8.53999 15.998 8.50691 16.0937C8.47443 16.1876 8.46139 16.2872 8.46857 16.3863L9.21123 23.9617C9.21356 23.9855 9.21473 24.0093 9.21473 24.0332C9.21473 24.3246 9.33036 24.6041 9.53623 24.8104C9.74199 25.0165 10.0211 25.1326 10.3123 25.1332C10.3125 25.1332 10.3122 25.1332 10.3123 25.1332H25.6872C25.6874 25.1332 25.687 25.1332 25.6872 25.1332C25.9784 25.1326 26.258 25.0165 26.4638 24.8104C26.6696 24.6041 26.7853 24.3246 26.7853 24.0332C26.7853 24.0093 26.7864 23.9855 26.7888 23.9617L27.5314 16.3863C27.5386 16.2874 27.5256 16.188 27.4933 16.0942C27.4603 15.9987 27.408 15.911 27.3396 15.8366C27.2712 15.7623 27.1881 15.7029 27.0956 15.6622C27.0035 15.6216 26.9039 15.6004 26.8032 15.6H9.2001ZM9.20006 14.1333C8.89639 14.1333 8.596 14.1961 8.31781 14.3179C8.0396 14.4397 7.78962 14.6178 7.58361 14.8409C7.37759 15.064 7.22001 15.3274 7.12077 15.6144C7.02153 15.9014 6.9828 16.2059 7.007 16.5086L7.74837 24.0721C7.75844 24.738 8.02703 25.3745 8.49824 25.8465C8.97861 26.3277 9.63029 26.5987 10.3102 26.5999H25.6898C26.3697 26.5987 27.0214 26.3277 27.5018 25.8465C27.973 25.3745 28.2416 24.738 28.2516 24.0721L28.9918 16.5217L28.993 16.5086C29.0172 16.2064 28.9786 15.9026 28.8798 15.616C28.781 15.3295 28.624 15.0664 28.4187 14.8434C28.2135 14.6204 27.9643 14.4422 27.6869 14.32C27.4095 14.1978 27.1099 14.1342 26.8068 14.1333H9.20006C9.20008 14.1333 9.20005 14.1333 9.20006 14.1333Z" fill="#005DF0"/>
</svg>
