<svg width="36" height="36" viewBox="0 0 36 36" fill="none" xmlns="http://www.w3.org/2000/svg">
<rect width="36" height="36" rx="4" fill="#005DF0"/>
<path fill-rule="evenodd" clip-rule="evenodd" d="M17.6068 7C14.6787 7 12.3597 9.29661 12.5901 12.3866C12.7887 15.0457 14.8819 17.5217 17.6068 17.5217C20.3334 17.5217 22.4214 15.0436 22.6232 12.389C22.8544 9.34531 20.5456 7 17.6068 7ZM17.6068 15.6087C15.9944 15.6087 14.5516 14.0737 14.4145 12.2379L17.6068 12.2376L20.7991 12.2375C20.6594 14.0737 19.2188 15.6087 17.6068 15.6087ZM17.6068 8.91304C15.6152 8.91304 14.2768 10.3911 14.4145 12.2379L17.6068 12.2376L20.7991 12.2375C20.9366 10.4268 19.5967 8.91304 17.6068 8.91304ZM18.205 18.9933C13.7357 18.9933 8.92965 21.5874 8.03195 26.7911C7.94691 27.2839 8.0287 27.816 8.31258 28.2496C8.61051 28.7047 9.1026 28.9999 9.68911 28.9999H26.721C27.3074 28.9999 27.7997 28.7049 28.0978 28.2497C28.3819 27.8161 28.4636 27.2839 28.3786 26.7911C27.4804 21.5875 22.6744 18.9933 18.205 18.9933ZM26.5701 27.0869H9.84045C10.5439 23.1517 14.2698 20.9063 18.205 20.9063C22.1402 20.9063 25.8662 23.1517 26.5701 27.0869Z" fill="white"/>
</svg>
