<svg width="36" height="36" viewBox="0 0 36 36" fill="none" xmlns="http://www.w3.org/2000/svg">
<path fill-rule="evenodd" clip-rule="evenodd" d="M24.3414 8.52304C25.2636 8.35937 26.1463 8.32336 26.863 8.49818C27.024 8.53685 27.1708 8.62036 27.2864 8.73907C27.4006 8.85641 27.4796 9.00335 27.5146 9.16319C27.6829 9.90104 27.6479 10.7912 27.4838 11.7205C27.3175 12.6615 27.0103 13.689 26.5946 14.7204C25.7662 16.7757 24.4804 18.9109 22.9309 20.4523C22.4755 20.9105 21.9874 21.3348 21.4706 21.722C21.5045 22.5656 21.4083 23.4385 21.0644 24.2275L21.0641 24.2283C20.507 25.5025 19.5034 26.3025 18.5367 26.7994C17.5728 27.2947 16.604 27.5113 16.0291 27.6037C15.8665 27.63 15.7001 27.6185 15.5426 27.5702C15.3852 27.5219 15.2409 27.438 15.1211 27.3251C15.0012 27.2121 14.9089 27.0731 14.8513 26.9188C14.7938 26.7645 14.7724 26.5991 14.789 26.4352C14.7892 26.4333 14.7894 26.4313 14.7896 26.4294L15.0925 23.67C15.0618 23.6669 15.0311 23.6637 15.0005 23.6603C14.663 23.6254 14.348 23.4748 14.1091 23.2339C14.1086 23.2333 14.1081 23.2328 14.1075 23.2322L12.7644 21.8891C12.7638 21.8885 12.7633 21.888 12.7627 21.8874C12.5219 21.6487 12.3712 21.3339 12.3363 20.9966C12.3327 20.9644 12.3293 20.9321 12.3261 20.8999L9.5642 21.2031L9.56136 21.2034L9.55923 21.2036C9.39515 21.2204 9.22942 21.1992 9.07486 21.1416C8.92029 21.0841 8.78107 20.9917 8.66796 20.8717C8.55486 20.7516 8.47091 20.6072 8.42262 20.4495C8.37433 20.2918 8.36301 20.1251 8.38952 19.9623L8.38972 19.9611C8.48412 19.388 8.70171 18.4206 9.19781 17.4573C9.6952 16.4915 10.495 15.4886 11.7682 14.9287L11.7701 14.9279C12.5594 14.5836 13.437 14.4875 14.2859 14.5245C14.6731 14.0097 15.0971 13.5233 15.5547 13.0694C17.1005 11.525 19.268 10.2398 21.3368 9.41194C22.3752 8.99643 23.4061 8.68904 24.3414 8.52304ZM21.8477 10.6885C19.902 11.4671 17.9072 12.6624 16.5257 14.0429L16.5239 14.0447C16.0305 14.5341 15.5805 15.0655 15.1792 15.6328C15.0376 15.833 14.8001 15.9426 14.556 15.9205C13.7191 15.8448 12.945 15.9158 12.3208 16.1878C11.4251 16.5819 10.8247 17.3014 10.4202 18.0869C10.1086 18.6919 9.92655 19.3117 9.82178 19.7915L12.8976 19.4539C13.0908 19.4327 13.2839 19.4942 13.4291 19.6232C13.5744 19.7522 13.6583 19.9367 13.6601 20.1309C13.6623 20.3704 13.6767 20.6095 13.7032 20.8475C13.7035 20.8499 13.7037 20.8523 13.704 20.8547C13.7061 20.8761 13.7156 20.896 13.7309 20.9111L13.7338 20.914L15.0826 22.2628L15.0854 22.2656C15.1005 22.2809 15.1205 22.2904 15.1419 22.2925C15.1444 22.2928 15.147 22.2931 15.1496 22.2934C15.3861 22.3197 15.6237 22.3341 15.8617 22.3364C16.0559 22.3383 16.2403 22.4223 16.3692 22.5675C16.4981 22.7128 16.5596 22.9058 16.5384 23.0989L16.201 26.1727C16.6809 26.0693 17.302 25.8879 17.9081 25.5764C18.6941 25.1725 19.4127 24.5726 19.804 23.678C20.0767 23.0521 20.1476 22.2814 20.0758 21.4471C20.0548 21.2034 20.1648 20.9669 20.3647 20.8261C20.9337 20.4252 21.4664 19.9753 21.957 19.4816L21.9599 19.4787C23.348 18.0984 24.5425 16.1337 25.3193 14.2064C25.7063 13.2461 25.9831 12.3113 26.1297 11.4812C26.2486 10.8084 26.2768 10.2332 26.2258 9.7802C25.7991 9.73208 25.2435 9.75943 24.5817 9.87688C23.7563 10.0234 22.8167 10.3007 21.8477 10.6885ZM15.8106 26.2462C15.8103 26.2462 15.8101 26.2463 15.8098 26.2463L15.8104 26.2462C15.8105 26.2462 15.8105 26.2462 15.8106 26.2462ZM21.1303 13.7363C20.9033 13.7363 20.6815 13.8036 20.4929 13.9297C20.3042 14.0558 20.1571 14.235 20.0703 14.4446C19.9835 14.6543 19.9608 14.885 20.0051 15.1075C20.0494 15.3301 20.1586 15.5345 20.3191 15.6949L20.3197 15.6955C20.4261 15.8021 20.5524 15.8867 20.6915 15.9444C20.8306 16.0021 20.9797 16.0318 21.1303 16.0318C21.2808 16.0318 21.43 16.0021 21.569 15.9444C21.7081 15.8867 21.8345 15.8021 21.9408 15.6955L21.9414 15.6949C22.1019 15.5345 22.2112 15.3301 22.2555 15.1075C22.2998 14.885 22.2771 14.6543 22.1902 14.4446C22.1034 14.235 21.9564 14.0558 21.7677 13.9297C21.579 13.8036 21.3572 13.7363 21.1303 13.7363ZM19.7289 12.7865C20.1437 12.5093 20.6314 12.3613 21.1303 12.3613C21.6291 12.3613 22.1168 12.5093 22.5316 12.7865C22.9464 13.0636 23.2697 13.4576 23.4606 13.9185C23.6515 14.3794 23.7014 14.8866 23.604 15.3759C23.5067 15.8649 23.2666 16.3141 22.9141 16.6667C22.6801 16.9013 22.402 17.0874 22.0959 17.2144C21.7898 17.3414 21.4617 17.4068 21.1303 17.4068C20.7989 17.4068 20.4707 17.3414 20.1646 17.2144C19.8587 17.0875 19.5808 16.9015 19.3467 16.6671C18.9941 16.3144 18.7539 15.8651 18.6565 15.3759C18.5591 14.8866 18.6091 14.3794 18.7999 13.9185C18.9908 13.4576 19.3141 13.0636 19.7289 12.7865ZM12.3935 22.0412C12.4397 22.4181 12.1717 22.7611 11.7949 22.8074C11.5189 22.8412 11.2622 22.9662 11.0654 23.1624C10.9994 23.229 10.8927 23.4117 10.7875 23.7564C10.6888 24.0792 10.615 24.4632 10.5613 24.8442C10.5278 25.0818 10.503 25.3116 10.4848 25.5152C10.6886 25.497 10.9185 25.4722 11.1563 25.4386C11.5373 25.3848 11.9213 25.3109 12.2439 25.2122C12.5892 25.1066 12.7711 24.9998 12.8366 24.9343L12.8377 24.9331C13.0344 24.7373 13.1593 24.4809 13.1924 24.2053C13.2376 23.8283 13.5799 23.5594 13.9569 23.6046C14.3338 23.6498 14.6028 23.992 14.5576 24.369C14.4878 24.9513 14.2239 25.4931 13.8084 25.9069C13.4952 26.22 13.0415 26.4062 12.6461 26.5271C12.2278 26.655 11.7659 26.7412 11.3484 26.8001C10.9278 26.8595 10.5347 26.8936 10.2479 26.9129C10.104 26.9226 9.98569 26.9286 9.90258 26.9323C9.861 26.9341 9.82816 26.9353 9.80526 26.9361C9.79381 26.9365 9.78484 26.9368 9.7785 26.937L9.77098 26.9372L9.76799 26.9373L9.76772 26.9373C9.76761 26.9373 9.76751 26.9373 9.74999 26.25C9.06272 26.2325 9.06272 26.2324 9.06272 26.2323L9.06281 26.229L9.06303 26.2215C9.06321 26.2151 9.06349 26.2062 9.06389 26.1947C9.06467 26.1718 9.06589 26.139 9.06772 26.0975C9.07136 26.0144 9.07741 25.8961 9.08709 25.7523C9.10639 25.4656 9.14045 25.0727 9.19975 24.6522C9.2586 24.2349 9.34466 23.773 9.47243 23.3547C9.59333 22.9589 9.77935 22.505 10.0919 22.1914L10.0931 22.1902C10.5069 21.777 11.0469 21.5139 11.6273 21.4426C12.0042 21.3963 12.3472 21.6644 12.3935 22.0412ZM9.74999 26.25L9.06272 26.2325C9.05791 26.4208 9.13062 26.6029 9.26385 26.7361C9.39708 26.8694 9.57916 26.9421 9.76751 26.9373L9.74999 26.25Z" fill="#005DF0"/>
</svg>
