<svg width="36" height="36" viewBox="0 0 36 36" fill="none" xmlns="http://www.w3.org/2000/svg">
<rect width="36" height="36" rx="4" fill="#005DF0"/>
<path d="M28.6628 26.7917L23.6755 21.8044C24.8762 20.2059 25.5244 18.2603 25.5222 16.2611C25.5222 11.1546 21.3677 7 16.2611 7C11.1546 7 7 11.1546 7 16.2611C7 21.3676 11.1546 25.5222 16.2611 25.5222C18.2603 25.5244 20.206 24.8762 21.8044 23.6755L26.7917 28.6628C27.0442 28.8884 27.3734 29.0089 27.7119 28.9994C28.0504 28.9899 28.3724 28.8513 28.6119 28.6118C28.8513 28.3724 28.99 28.0504 28.9995 27.7119C29.009 27.3734 28.8885 27.0441 28.6628 26.7917V26.7917ZM9.64603 16.2611C9.64603 14.9528 10.034 13.6738 10.7609 12.586C11.4878 11.4981 12.5209 10.6502 13.7296 10.1496C14.9384 9.64889 16.2685 9.51789 17.5517 9.77313C18.8349 10.0284 20.0136 10.6584 20.9387 11.5835C21.8638 12.5087 22.4939 13.6874 22.7491 14.9706C23.0043 16.2538 22.8733 17.5838 22.3727 18.7926C21.872 20.0013 21.0241 21.0344 19.9363 21.7613C18.8484 22.4882 17.5695 22.8762 16.2611 22.8762C14.5073 22.8741 12.826 22.1764 11.5859 20.9363C10.3458 19.6962 9.64814 18.0149 9.64603 16.2611V16.2611Z" fill="white"/>
</svg>
