<svg width="22" height="22" viewBox="0 0 22 22" fill="none" xmlns="http://www.w3.org/2000/svg">
<g clip-path="url(#clip0_37_2796)">
<path d="M8.93748 22.0015C8.72021 22.0026 8.50777 21.9373 8.32857 21.8145C8.14936 21.6916 8.01191 21.517 7.93459 21.314L6.22271 16.8624C6.18804 16.7727 6.135 16.6912 6.067 16.6232C5.999 16.5552 5.91753 16.5022 5.82783 16.4675L1.37498 14.7544C1.17214 14.6765 0.99768 14.539 0.874615 14.3599C0.751551 14.1809 0.685672 13.9687 0.685672 13.7515C0.685672 13.5342 0.751551 13.3221 0.874615 13.143C0.99768 12.964 1.17214 12.8264 1.37498 12.7486L5.82654 11.0367C5.91625 11.002 5.99771 10.949 6.06571 10.881C6.13372 10.813 6.18675 10.7315 6.22142 10.6418L7.93459 6.18897C8.01244 5.98613 8.14996 5.81167 8.32901 5.6886C8.50806 5.56554 8.72022 5.49966 8.93748 5.49966C9.15474 5.49966 9.3669 5.56554 9.54595 5.6886C9.725 5.81167 9.86252 5.98613 9.94037 6.18897L11.6522 10.6405C11.6869 10.7302 11.74 10.8117 11.808 10.8797C11.876 10.9477 11.9574 11.0007 12.0471 11.0354L16.4729 12.7383C16.684 12.8165 16.8659 12.9579 16.9937 13.1432C17.1216 13.3285 17.1892 13.5487 17.1875 13.7738C17.1842 13.9873 17.1169 14.1949 16.9944 14.3697C16.8718 14.5445 16.6996 14.6785 16.5 14.7544L12.0484 16.4662C11.9587 16.5009 11.8772 16.5539 11.8092 16.6219C11.7412 16.6899 11.6882 16.7714 11.6535 16.8611L9.94037 21.314C9.86305 21.517 9.7256 21.6916 9.54639 21.8145C9.36718 21.9373 9.15475 22.0026 8.93748 22.0015ZM3.78123 7.56397C3.65385 7.56396 3.52946 7.52537 3.42446 7.45326C3.31945 7.38116 3.23875 7.27894 3.19299 7.16006L2.46853 5.27631C2.45283 5.23511 2.4286 5.1977 2.39742 5.16652C2.36625 5.13535 2.32883 5.11112 2.28764 5.09541L0.403886 4.37096C0.285026 4.32519 0.182819 4.24448 0.110733 4.13948C0.038646 4.03447 6.10352e-05 3.91009 6.10352e-05 3.78272C6.10352e-05 3.65535 0.038646 3.53097 0.110733 3.42596C0.182819 3.32095 0.285026 3.24025 0.403886 3.19448L2.28764 2.47002C2.32879 2.45425 2.36617 2.42999 2.39734 2.39883C2.4285 2.36766 2.45276 2.33028 2.46853 2.28912L3.18654 0.422132C3.22704 0.312219 3.29671 0.215419 3.38809 0.142135C3.47947 0.0688504 3.58909 0.0218534 3.70518 0.00619464C3.84454 -0.0107478 3.98558 0.0193211 4.10592 0.0916334C4.22626 0.163946 4.31901 0.274362 4.36947 0.405374L5.09393 2.28912C5.1097 2.33028 5.13396 2.36766 5.16512 2.39883C5.19629 2.42999 5.23367 2.45425 5.27482 2.47002L7.15857 3.19448C7.27743 3.24025 7.37964 3.32095 7.45173 3.42596C7.52381 3.53097 7.5624 3.65535 7.5624 3.78272C7.5624 3.91009 7.52381 4.03447 7.45173 4.13948C7.37964 4.24448 7.27743 4.32519 7.15857 4.37096L5.27482 5.09541C5.23363 5.11112 5.19621 5.13535 5.16504 5.16652C5.13386 5.1977 5.10963 5.23511 5.09393 5.27631L4.36947 7.16006C4.32371 7.27894 4.24301 7.38116 4.138 7.45326C4.033 7.52537 3.90861 7.56396 3.78123 7.56397ZM17.1875 11.0015C17.0485 11.0014 16.9128 10.9593 16.7983 10.8806C16.6838 10.8019 16.5958 10.6903 16.546 10.5606L15.5646 8.00955C15.5473 7.9646 15.5208 7.92378 15.4867 7.88973C15.4527 7.85568 15.4118 7.82916 15.3669 7.8119L12.8158 6.83049C12.6862 6.78055 12.5748 6.69253 12.4962 6.57801C12.4176 6.4635 12.3755 6.32786 12.3755 6.18897C12.3755 6.05008 12.4176 5.91444 12.4962 5.79992C12.5748 5.68541 12.6862 5.59738 12.8158 5.54745L15.3669 4.56604C15.4118 4.54877 15.4527 4.52226 15.4867 4.48821C15.5208 4.45416 15.5473 4.41333 15.5646 4.36838L16.5387 1.83537C16.5831 1.71559 16.6592 1.6101 16.7589 1.53013C16.8585 1.45015 16.978 1.39868 17.1045 1.38119C17.2566 1.36278 17.4105 1.3957 17.5418 1.47471C17.673 1.55372 17.7741 1.67431 17.829 1.81733L18.8104 4.36838C18.8277 4.41333 18.8542 4.45416 18.8882 4.48821C18.9223 4.52226 18.9631 4.54877 19.0081 4.56604L21.5591 5.54745C21.6887 5.59738 21.8002 5.68541 21.8788 5.79992C21.9574 5.91444 21.9994 6.05008 21.9994 6.18897C21.9994 6.32786 21.9574 6.4635 21.8788 6.57801C21.8002 6.69253 21.6887 6.78055 21.5591 6.83049L19.0081 7.8119C18.9631 7.82916 18.9223 7.85568 18.8882 7.88973C18.8542 7.92378 18.8277 7.9646 18.8104 8.00955L17.829 10.5606C17.7792 10.6903 17.6912 10.8019 17.5766 10.8806C17.4621 10.9593 17.3264 11.0014 17.1875 11.0015Z" fill="url(#paint0_linear_37_2796)"/>
</g>
<defs>
<linearGradient id="paint0_linear_37_2796" x1="10.9997" y1="0.00158691" x2="2.50006" y2="22.0015" gradientUnits="userSpaceOnUse">
<stop stop-color="#005DF0"/>
<stop offset="0.966014" stop-color="#DBEFF0"/>
</linearGradient>
<clipPath id="clip0_37_2796">
<rect width="22" height="22" fill="white"/>
</clipPath>
</defs>
</svg>
